<svg width="480" xmlns="http://www.w3.org/2000/svg" height="480" fill="none"><defs><clipPath id="a" class="frame-clip frame-clip-def"><rect rx="0" ry="0" width="480" height="480" transform="matrix(1.000000, 0.000000, 0.000000, 1.000000, 0.000000, 0.000000)"/></clipPath></defs><g clip-path="url(#a)"><g class="fills"><rect rx="0" ry="0" width="480" height="480" transform="matrix(1.000000, 0.000000, 0.000000, 1.000000, 0.000000, 0.000000)" class="frame-background"/></g><g class="frame-children"><path d="M67.908,216.900L202.402,216.896C207.919,224.304,212.632,232.698,217.682,240.459L208.024,254.772L202.285,263.393C157.546,264.208,112.646,263.465,67.890,263.460L67.908,216.900ZZ" style="fill: rgb(194, 61, 76);" class="fills"/><path d="M96.726,289.070C144.488,289.059,192.315,289.846,240.068,289.161C230.453,304.285,220.681,319.307,210.752,334.226C209.895,334.955,209.024,335.002,207.932,335.121C202.611,335.702,197.016,335.451,191.656,335.470L162.769,335.491C130.937,335.530,99.107,335.395,67.277,335.088C76.604,319.616,86.273,303.805,96.726,289.070ZZ" style="fill: rgb(194, 61, 76);" class="fills"/><path d="M67.347,144.492C114.814,145.057,162.352,144.539,209.827,144.530C220.305,159.647,229.793,175.640,239.937,191.006C223.168,191.763,206.316,191.061,189.539,191.019L96.662,191.040C87.148,175.363,76.961,160.107,67.347,144.492ZZ" style="fill: rgb(194, 61, 76);" class="fills"/><path d="M269.872,289.230C289.034,289.553,308.195,289.514,327.356,289.112C327.165,289.538,326.968,289.960,326.753,290.373C324.502,294.681,300.682,333.526,298.507,334.826C298.094,335.072,297.593,335.122,297.136,335.270L240.554,335.377C250.174,319.898,259.947,304.516,269.872,289.230ZZ" style="fill: rgb(186, 155, 101);" class="fills"/><path d="M355.493,144.539L412.724,144.616C409.280,151.009,404.983,157.126,401.102,163.271C395.240,172.694,389.309,182.072,383.309,191.406C364.357,191.789,345.296,191.448,326.338,191.284C329.787,184.754,334.118,178.425,338.040,172.158C343.812,162.934,349.484,153.608,355.493,144.539ZZ" style="fill: rgb(186, 155, 101);" class="fills"/><path d="M240.068,144.604L298.378,144.577C304.992,156.696,312.382,168.389,319.533,180.193L340.033,214.776C363.892,255.001,387.572,295.582,412.562,335.108C393.572,335.493,374.580,335.563,355.588,335.318C325.043,285.358,296.147,234.382,265.520,184.476C257.259,171.014,248.574,157.903,240.068,144.604ZZ" style="fill: rgb(186, 155, 101);" class="fills"/></g></g></svg>